<!-- icon666.com - MILLIONS vector ICONS FREE --><svg xmlns="http://www.w3.org/2000/svg" xmlns:xlink="http://www.w3.org/1999/xlink" viewBox="0 0 128 128"><defs><linearGradient id="a" x1="109.486" y1="109.486" x2="18.514" y2="18.514" gradientUnits="userSpaceOnUse"><stop offset="0" stop-color="#fd5c70"></stop><stop offset="1" stop-color="#ffce64"></stop></linearGradient></defs><path d="M120.32,35.948a8.45,8.45,0,0,0-8.611-2.109,1.342,1.342,0,0,1-1.217-.178,1.186,1.186,0,0,1-.494-.98V19.752a1.749,1.749,0,0,0-1.75-1.75H98.322A4.817,4.817,0,0,0,94.4,20.03a4.525,4.525,0,0,0-.607,4.156,4.944,4.944,0,1,1-9.378.1,4.873,4.873,0,0,0-.679-4.354A4.661,4.661,0,0,0,79.93,18H51.074a1.311,1.311,0,0,1-1.065-.556,1.06,1.06,0,0,1-.157-.976A8.505,8.505,0,0,0,42,5.251,8.538,8.538,0,0,0,35.948,7.68a8.452,8.452,0,0,0-2.109,8.612,1.341,1.341,0,0,1-.178,1.216,1.184,1.184,0,0,1-.98.494H19.751A1.75,1.75,0,0,0,18,19.752v9.926A4.819,4.819,0,0,0,20.03,33.6a4.527,4.527,0,0,0,4.155.608,4.945,4.945,0,0,1,5.146,8.141,5,5,0,0,1-5.041,1.236,4.874,4.874,0,0,0-4.353.678A4.662,4.662,0,0,0,18,48.07V64a1.751,1.751,0,0,0,1.75,1.75H30.978A33.115,33.115,0,0,0,62.25,97.022V106.5H48.07a1.183,1.183,0,0,1-.979-.493,1.342,1.342,0,0,1-.179-1.216,8.444,8.444,0,1,0-16.013.178,1.06,1.06,0,0,1-.156.976,1.31,1.31,0,0,1-1.065.555H21.5V95.319a4.66,4.66,0,0,0-1.935-3.81,4.868,4.868,0,0,0-4.353-.678,5,5,0,0,1-5.04-1.236,4.877,4.877,0,0,1,.182-7.062,4.978,4.978,0,0,1,3.637-1.344,4.856,4.856,0,0,1,1.325.264,4.53,4.53,0,0,0,4.156-.608A4.82,4.82,0,0,0,21.5,76.926v-3.81a1.75,1.75,0,0,0-3.5,0v3.81a1.31,1.31,0,0,1-.555,1.065,1.059,1.059,0,0,1-.976.157,8.444,8.444,0,1,0-.179,16.013,1.34,1.34,0,0,1,1.217.178,1.186,1.186,0,0,1,.493.98v12.929a1.75,1.75,0,0,0,1.75,1.75h9.927A4.82,4.82,0,0,0,33.6,107.97a4.526,4.526,0,0,0,.608-4.155,4.944,4.944,0,1,1,9.377-.105,4.868,4.868,0,0,0,.678,4.353A4.661,4.661,0,0,0,48.07,110H76.926a1.311,1.311,0,0,1,1.065.556,1.056,1.056,0,0,1,.156.975,1.751,1.751,0,0,0,3.3,1.155,4.527,4.527,0,0,0-.606-4.156,4.821,4.821,0,0,0-3.92-2.03H65.75V97.022A33.114,33.114,0,0,0,97.021,65.75H106.5V79.93a1.182,1.182,0,0,1-.494.979,1.337,1.337,0,0,1-1.216.179,8.445,8.445,0,1,0,.178,16.013,1.062,1.062,0,0,1,.977.156,1.311,1.311,0,0,1,.555,1.066V106.5H95.318a4.662,4.662,0,0,0-3.809,1.935,4.873,4.873,0,0,0-.679,4.354,4.943,4.943,0,0,1-4.78,6.462,4.792,4.792,0,0,1-2.353-.666,1.749,1.749,0,1,0-1.773,3.016A8.278,8.278,0,0,0,86,122.749h.126a8.448,8.448,0,0,0,8.035-11.042,1.338,1.338,0,0,1,.179-1.216,1.185,1.185,0,0,1,.979-.494h12.93a1.749,1.749,0,0,0,1.75-1.75V98.323a4.819,4.819,0,0,0-2.028-3.92,4.532,4.532,0,0,0-4.157-.607,4.945,4.945,0,0,1-5.143-8.143,5,5,0,0,1,5.04-1.235,4.873,4.873,0,0,0,4.352-.678A4.659,4.659,0,0,0,110,79.93V51.074a1.311,1.311,0,0,1,.556-1.065,1.061,1.061,0,0,1,.976-.157,8.445,8.445,0,0,0,8.79-13.9ZM21.5,48.07A1.184,1.184,0,0,1,22,47.091a1.346,1.346,0,0,1,1.216-.179A8.444,8.444,0,1,0,23.033,30.9a1.062,1.062,0,0,1-.976-.156,1.311,1.311,0,0,1-.556-1.065V21.5h11.18a4.66,4.66,0,0,0,3.81-1.936,4.865,4.865,0,0,0,.678-4.352,4.951,4.951,0,0,1,1.236-5.041A5,5,0,0,1,41.95,8.751a5.037,5.037,0,0,1,4.861,5.241,4.856,4.856,0,0,1-.264,1.325,4.527,4.527,0,0,0,.608,4.156A4.819,4.819,0,0,0,51.074,21.5H62.25v9.476A33.115,33.115,0,0,0,30.978,62.25H21.5ZM64,67.208a8.781,8.781,0,1,1,8.781-8.781A8.791,8.791,0,0,1,64,67.208Zm0,3.5a12.232,12.232,0,0,0,2.73-.316l10.659,2.021a3.518,3.518,0,0,1,2.861,3.454V88.685A29.536,29.536,0,0,1,76.2,90.923V82.337a1.75,1.75,0,1,0-3.5,0V92.26a29.583,29.583,0,0,1-17.4,0V82.337a1.75,1.75,0,0,0-3.5,0v8.586a29.686,29.686,0,0,1-4.047-2.237V75.867a3.518,3.518,0,0,1,2.861-3.454L61.27,70.392A12.225,12.225,0,0,0,64,70.708Zm53.645-25.242a4.937,4.937,0,0,1-3.636,1.345,4.848,4.848,0,0,1-1.326-.264,4.528,4.528,0,0,0-4.157.609,4.816,4.816,0,0,0-2.028,3.918V62.25H97.023a32.764,32.764,0,0,0-2.746-11.566,1.75,1.75,0,0,0-3.2,1.411A29.565,29.565,0,0,1,83.75,85.983V75.867a7.021,7.021,0,0,0-5.709-6.892l-6.136-1.164a12.281,12.281,0,1,0-15.811,0l-6.136,1.164a7.022,7.022,0,0,0-5.708,6.892V85.983A29.567,29.567,0,0,1,75.8,36.88a1.75,1.75,0,1,0,1.4-3.208A32.77,32.77,0,0,0,65.75,30.977V21.5H79.93a1.179,1.179,0,0,1,.978.493,1.336,1.336,0,0,1,.18,1.216,8.445,8.445,0,0,0,8.034,11.042h.127A8.448,8.448,0,0,0,97.1,23.033a1.057,1.057,0,0,1,.156-.976,1.31,1.31,0,0,1,1.065-.555H106.5V32.681a4.66,4.66,0,0,0,1.935,3.81,4.87,4.87,0,0,0,4.354.678,5,5,0,0,1,5.04,1.236,4.878,4.878,0,0,1-.182,7.061ZM89.194,42.579a1.75,1.75,0,0,1-2.666,2.269,29.876,29.876,0,0,0-3.308-3.319A1.75,1.75,0,1,1,85.5,38.871,33.361,33.361,0,0,1,89.194,42.579Z" fill="url(#a)"></path></svg>