<!-- icon666.com - MILLIONS vector ICONS FREE --><svg viewBox="0 0 128 128" xmlns="http://www.w3.org/2000/svg" xmlns:xlink="http://www.w3.org/1999/xlink"><linearGradient id="a" gradientUnits="userSpaceOnUse" x1="91.987" x2="29.055" y1="97.853" y2="34.921"><stop offset="0" stop-color="#fd5c70"></stop><stop offset="1" stop-color="#ffce64"></stop></linearGradient><path d="m106.787 73.8-8.643-17.4a37.623 37.623 0 0 0 -.991-7.848 1.75 1.75 0 0 0 -1.7-1.347h-4.48v-1.034a3.711 3.711 0 0 0 -3.327-3.7l-4-.425a.715.715 0 0 1 -.605-.5 24.891 24.891 0 0 0 -1.659-3.975.708.708 0 0 1 .075-.778l2.543-3.137a3.71 3.71 0 0 0 -.264-4.966l-3.948-3.949a3.714 3.714 0 0 0 -4.967-.263l-3.143 2.54a.712.712 0 0 1 -.779.075 24.842 24.842 0 0 0 -3.974-1.659.714.714 0 0 1 -.5-.6l-.425-4.009a3.711 3.711 0 0 0 -3.7-3.325h-5.583a3.712 3.712 0 0 0 -3.7 3.326l-.417 3.918a.712.712 0 0 1 -.5.606 24.658 24.658 0 0 0 -4.091 1.661.711.711 0 0 1 -.771-.079l-3.038-2.454a3.71 3.71 0 0 0 -4.966.263l-3.95 3.949a3.714 3.714 0 0 0 -.263 4.966l2.384 2.944a.706.706 0 0 1 .073.78 24.754 24.754 0 0 0 -1.775 4.2.71.71 0 0 1 -.6.491l-3.731.4a3.711 3.711 0 0 0 -3.325 3.7v1.039h-4.847a1.749 1.749 0 0 0 -1.708 1.371 37.282 37.282 0 0 0 .115 16.713 1.75 1.75 0 1 0 3.405-.809 33.76 33.76 0 0 1 -.378-13.775h69.4a34.431 34.431 0 0 1 .614 6.14 1.749 1.749 0 0 0 .183.758l8.819 17.75a2.341 2.341 0 0 1 -2.092 3.382h-5.148a1.749 1.749 0 0 0 -1.75 1.75v5.09a11.263 11.263 0 0 1 -11.25 11.25h-5.09a1.749 1.749 0 0 0 -1.75 1.75v8.67h-30.12v-17.42a1.75 1.75 0 0 0 -1.093-1.622 33.433 33.433 0 0 1 -8.487-4.988 1.749 1.749 0 1 0 -2.2 2.72 36.819 36.819 0 0 0 8.281 5.049v18.011a1.749 1.749 0 0 0 1.75 1.75h33.619a1.749 1.749 0 0 0 1.75-1.75v-8.67h3.34a14.767 14.767 0 0 0 14.75-14.75v-3.34h3.4a5.841 5.841 0 0 0 5.227-8.438zm-75.741-27.629a.718.718 0 0 1 .642-.715l3.73-.4a3.709 3.709 0 0 0 3.144-2.567 21.718 21.718 0 0 1 1.561-3.689 3.7 3.7 0 0 0 -.385-4.083l-2.381-2.946a.721.721 0 0 1 .051-.962l3.95-3.949a.718.718 0 0 1 .959-.05l3.037 2.455a3.715 3.715 0 0 0 4.029.413 21.774 21.774 0 0 1 3.594-1.46 3.708 3.708 0 0 0 2.609-3.159l.414-3.915a.718.718 0 0 1 .715-.644h5.585a.718.718 0 0 1 .715.643l.425 4a3.711 3.711 0 0 0 2.567 3.145 21.852 21.852 0 0 1 3.493 1.462 3.71 3.71 0 0 0 4.057-.4l3.143-2.539a.72.72 0 0 1 .961.051l3.949 3.948a.719.719 0 0 1 .051.962l-2.54 3.143a3.71 3.71 0 0 0 -.4 4.056 21.686 21.686 0 0 1 1.458 3.492 3.716 3.716 0 0 0 3.145 2.568l4 .425a.719.719 0 0 1 .644.715v1.039h-14.021a14.543 14.543 0 0 0 -28.876 0h-14.025zm39.869 1.039h-22.815a11.537 11.537 0 0 1 22.811 0zm-40.315 29.453a1.749 1.749 0 0 1 -.373 2.446 1.748 1.748 0 0 1 -2.446-.372c-.234-.317-.457-.636-.679-.965a38.269 38.269 0 0 1 -2.102-3.472 1.75 1.75 0 0 1 3.086-1.65 34.989 34.989 0 0 0 1.914 3.155c.2.295.393.576.6.858z" fill="url(#a)"></path></svg>