<!-- icon666.com - MILLIONS vector ICONS FREE --><svg viewBox="0 0 128 128" xmlns="http://www.w3.org/2000/svg" xmlns:xlink="http://www.w3.org/1999/xlink"><linearGradient id="a" gradientUnits="userSpaceOnUse" x1="115.925" x2="12.075" y1="115.925" y2="12.075"><stop offset="0" stop-color="#fd5c70"></stop><stop offset="1" stop-color="#ffce64"></stop></linearGradient><path d="m64 60a12.232 12.232 0 0 0 2.73-.317l10.659 2.017a3.519 3.519 0 0 1 2.861 3.454v17.664a1.75 1.75 0 0 0 3.5 0v-17.665a7.022 7.022 0 0 0 -5.709-6.892l-6.135-1.161a12.281 12.281 0 1 0 -15.812 0l-6.136 1.164a7.022 7.022 0 0 0 -5.708 6.892 1.75 1.75 0 0 0 3.5 0 3.519 3.519 0 0 1 2.861-3.456l10.659-2.022a12.226 12.226 0 0 0 2.73.322zm-8.781-12.287a8.781 8.781 0 1 1 8.781 8.787 8.791 8.791 0 0 1 -8.781-8.787zm-7.469 26.557v8.548a1.75 1.75 0 0 1 -3.5 0v-8.548a1.75 1.75 0 0 1 3.5 0zm7.55-2.647v11.195a1.75 1.75 0 1 1 -3.5 0v-11.195a1.75 1.75 0 0 1 3.5 0zm20.906 0v11.195a1.75 1.75 0 1 1 -3.5 0v-11.195a1.75 1.75 0 0 1 3.5 0zm42.37-47.364a1.75 1.75 0 0 1 3.415-.765 32.034 32.034 0 0 1 .706 5.217 1.75 1.75 0 0 1 -1.651 1.844h-.1a1.751 1.751 0 0 1 -1.746-1.655 28.463 28.463 0 0 0 -.627-4.641zm-2.486 46.977a9.224 9.224 0 0 0 .01-14.466 71.45 71.45 0 0 0 6.087-19.009 1.75 1.75 0 0 0 -3.458-.539 67.821 67.821 0 0 1 -5.731 17.92 9.151 9.151 0 0 0 -6.057.266 135.644 135.644 0 0 0 -15.658-18.691 135.585 135.585 0 0 0 -18.691-15.653 9.147 9.147 0 0 0 .268-6.049c17.572-8.166 32.675-8.38 40.59-.466a17.761 17.761 0 0 1 1.771 2.07 1.75 1.75 0 0 0 2.827-2.063 21.118 21.118 0 0 0 -2.123-2.481c-9.021-9.022-25.659-9.041-44.689-.162a9.223 9.223 0 0 0 -14.472 0c-19.031-8.88-35.668-8.86-44.689.162s-9.041 25.66-.163 44.689a9.224 9.224 0 0 0 0 14.469 68.629 68.629 0 0 0 -6.471 22.007 1.749 1.749 0 0 0 1.579 1.905 1.544 1.544 0 0 0 .165.008 1.75 1.75 0 0 0 1.741-1.587 64.994 64.994 0 0 1 6.085-20.707 9.149 9.149 0 0 0 6.053-.267 135.55 135.55 0 0 0 15.653 18.691 135.6 135.6 0 0 0 18.691 15.653 9.147 9.147 0 0 0 -.268 6.049c-17.572 8.166-32.674 8.381-40.591.466a19.991 19.991 0 0 1 -5.412-11.214 1.75 1.75 0 1 0 -3.454.562 23.392 23.392 0 0 0 6.392 13.126c4.54 4.541 11.006 6.807 18.737 6.807 7.635 0 16.5-2.216 25.962-6.631a9.226 9.226 0 0 0 14.452 0c9.459 4.415 18.326 6.632 25.961 6.631 7.73 0 14.2-2.267 18.738-6.807 9.022-9.025 9.041-25.659.162-44.689zm0-7.236a5.75 5.75 0 1 1 -5.75-5.75 5.757 5.757 0 0 1 5.751 5.75zm-52.09-52.091a5.75 5.75 0 1 1 -5.75 5.75 5.757 5.757 0 0 1 5.75-5.75zm-49.451 2.64c7.916-7.914 23.019-7.7 40.591.466a9.147 9.147 0 0 0 .268 6.049 138.342 138.342 0 0 0 -34.344 34.344 9.147 9.147 0 0 0 -6.049-.268c-8.166-17.572-8.381-32.675-.466-40.591zm-2.64 49.451a5.75 5.75 0 1 1 5.75 5.75 5.757 5.757 0 0 1 -5.75-5.75zm27.282 24.809a132.28 132.28 0 0 1 -15.178-18.109 9.208 9.208 0 0 0 0-13.408 134.815 134.815 0 0 1 33.287-33.278 9.209 9.209 0 0 0 13.408 0 132.4 132.4 0 0 1 18.101 15.177 132.235 132.235 0 0 1 15.177 18.1 9.21 9.21 0 0 0 0 13.408 132.212 132.212 0 0 1 -15.177 18.11 132.352 132.352 0 0 1 -18.109 15.178 9.208 9.208 0 0 0 -13.408 0 132.28 132.28 0 0 1 -18.101-15.178zm24.809 27.282a5.75 5.75 0 1 1 5.75-5.75 5.757 5.757 0 0 1 -5.75 5.75zm49.451-2.64c-7.916 7.914-23.019 7.7-40.591-.466a9.147 9.147 0 0 0 -.268-6.049 135.668 135.668 0 0 0 18.691-15.653 135.621 135.621 0 0 0 15.653-18.691 9.147 9.147 0 0 0 6.049.268c8.166 17.572 8.38 32.676.466 40.591z" fill="url(#a)"></path></svg>