<?xml version="1.0" encoding="UTF-8"?>
<!DOCTYPE svg PUBLIC "-//W3C//DTD SVG 1.1//EN" "http://www.w3.org/Graphics/SVG/1.1/DTD/svg11.dtd">
<svg xmlns="http://www.w3.org/2000/svg" version="1.1" width="145px" height="70px" style="shape-rendering:geometricPrecision; text-rendering:geometricPrecision; image-rendering:optimizeQuality; fill-rule:evenodd; clip-rule:evenodd" xmlns:xlink="http://www.w3.org/1999/xlink">
<g><path style="opacity:1" fill="#99c52a" d="M 35.5,0.5 C 36.4972,0.470076 37.1639,0.970076 37.5,2C 39.326,6.47709 40.9927,10.9771 42.5,15.5C 40.4176,15.472 38.5843,16.1387 37,17.5C 33.4738,13.1656 30.6404,8.49895 28.5,3.5C 31.2406,3.29268 33.5739,2.29268 35.5,0.5 Z"/></g>
<g><path style="opacity:1" fill="#ff9830" d="M 22.5,15.5 C 21.2215,18.0024 21.2215,20.5024 22.5,23C 21.5,23.3333 20.5,23.6667 19.5,24C 21.5767,24.1922 23.5767,24.6922 25.5,25.5C 25.3764,26.1067 25.0431,26.44 24.5,26.5C 20.5652,25.1783 17.0652,26.1783 14,29.5C 11.1487,34.5777 10.3154,39.9111 11.5,45.5C 7.77883,40.8779 7.77883,36.0446 11.5,31C 11.1408,28.3695 10.1408,26.2029 8.5,24.5C 8.5,23.8333 8.5,23.1667 8.5,22.5C 12.2998,18.6 16.9665,16.2667 22.5,15.5 Z"/></g>
<g><path style="opacity:1" fill="#ff6b3c" d="M 34.5,19.5 C 35.1667,19.5 35.5,19.8333 35.5,20.5C 36.1834,22.1765 37.5168,22.8432 39.5,22.5C 39.4679,25.0758 40.1346,27.4091 41.5,29.5C 39.5,29.5 37.5,29.5 35.5,29.5C 34.5,29.5 33.5,29.5 32.5,29.5C 31.931,25.6707 32.5977,22.3373 34.5,19.5 Z"/></g>
<g><path style="opacity:1" fill="#ff5d47" d="M 35.5,20.5 C 41.5755,19.3721 46.5755,21.0388 50.5,25.5C 49.7611,25.369 49.0944,25.5357 48.5,26C 48.1735,34.6776 48.5068,43.511 49.5,52.5C 48.1667,55.1667 46.1667,57.1667 43.5,58.5C 42.2073,57.3552 41.0407,57.6885 40,59.5C 39.5065,57.8659 39.3398,56.1992 39.5,54.5C 37.0065,54.8693 36.3398,54.2027 37.5,52.5C 42.3898,48.57 45.3898,43.4033 46.5,37C 46.1689,33.5199 44.5022,31.0199 41.5,29.5C 40.1346,27.4091 39.4679,25.0758 39.5,22.5C 37.5168,22.8432 36.1834,22.1765 35.5,20.5 Z"/></g>
<g><path style="opacity:1" fill="#ff9e24" d="M 8.5,24.5 C 10.1408,26.2029 11.1408,28.3695 11.5,31C 7.77883,36.0446 7.77883,40.8779 11.5,45.5C 11.9867,46.4734 12.4867,47.4734 13,48.5C 13.21,46.9419 13.71,45.6085 14.5,44.5C 14.9167,47.0792 14.25,49.2458 12.5,51C 13.4764,57.0758 13.8097,63.2424 13.5,69.5C 13.1667,69.5 12.8333,69.5 12.5,69.5C 12.6641,66.8127 12.4974,64.146 12,61.5C 9.2415,59.2488 7.07483,56.5821 5.5,53.5C 6.27632,44.8801 6.77632,36.2134 7,27.5C 7.51328,26.4734 8.01328,25.4734 8.5,24.5 Z"/></g>
<g><path style="opacity:1" fill="#ff7d33" d="M 22.5,15.5 C 27.0039,15.6187 31.0039,16.9521 34.5,19.5C 32.5977,22.3373 31.931,25.6707 32.5,29.5C 33.5,29.5 34.5,29.5 35.5,29.5C 31.5442,31.7881 28.2109,34.7881 25.5,38.5C 24.5,38.5 23.5,38.5 22.5,38.5C 22.6323,35.4299 22.299,32.4299 21.5,29.5C 22.1667,28.1667 23.1667,27.1667 24.5,26.5C 25.0431,26.44 25.3764,26.1067 25.5,25.5C 23.5767,24.6922 21.5767,24.1922 19.5,24C 20.5,23.6667 21.5,23.3333 22.5,23C 21.2215,20.5024 21.2215,18.0024 22.5,15.5 Z"/></g>
<g><path style="opacity:1" fill="#ff5450" d="M 50.5,25.5 C 55.6571,31.2891 56.8238,37.9558 54,45.5C 52.9741,48.2387 51.4741,50.572 49.5,52.5C 48.5068,43.511 48.1735,34.6776 48.5,26C 49.0944,25.5357 49.7611,25.369 50.5,25.5 Z"/></g>
<g><path style="opacity:1" fill="#ffaa2b" d="M 8.5,22.5 C 8.5,23.1667 8.5,23.8333 8.5,24.5C 8.01328,25.4734 7.51328,26.4734 7,27.5C 6.77632,36.2134 6.27632,44.8801 5.5,53.5C -0.52833,42.4778 0.47167,32.1445 8.5,22.5 Z"/></g>
<g><path style="opacity:1" fill="#ff8835" d="M 21.5,29.5 C 22.299,32.4299 22.6323,35.4299 22.5,38.5C 23.5,38.5 24.5,38.5 25.5,38.5C 23.4191,43.9823 22.0857,49.649 21.5,55.5C 25.5483,55.6054 29.5483,55.2721 33.5,54.5C 31.8984,56.0739 29.8984,56.7406 27.5,56.5C 27.5,58.8333 27.5,61.1667 27.5,63.5C 29.5,63.5 31.5,63.5 33.5,63.5C 30.9773,64.2537 28.3106,64.9204 25.5,65.5C 24.8933,65.3764 24.56,65.0431 24.5,64.5C 23.4324,63.5655 22.099,63.2322 20.5,63.5C 19.7273,56.3637 19.0606,46.697 18.5,34.5C 19.1103,32.5659 20.1103,30.8993 21.5,29.5 Z"/></g>
<g><path style="opacity:0.147" fill="#a0a0a0" d="M 68.5,33.5 C 68.5,37.8333 68.5,42.1667 68.5,46.5C 69.8333,46.5 71.1667,46.5 72.5,46.5C 71.0813,47.4511 69.4147,47.7845 67.5,47.5C 67.1805,42.6367 67.5139,37.97 68.5,33.5 Z"/></g>
<g><path style="opacity:0.951" fill="#171717" d="M 68.5,33.5 C 72.5164,32.8999 76.0164,33.8999 79,36.5C 79.8294,42.0156 77.3294,44.849 71.5,45C 72.056,45.3826 72.3893,45.8826 72.5,46.5C 71.1667,46.5 69.8333,46.5 68.5,46.5C 68.5,42.1667 68.5,37.8333 68.5,33.5 Z M 71.5,38.5 C 72.8488,37.2035 74.1821,37.3702 75.5,39C 74.8921,39.8699 74.0588,40.3699 73,40.5C 72.0346,40.0704 71.5346,39.4037 71.5,38.5 Z"/></g>
<g><path style="opacity:0.997" fill="#0c0c0c" d="M 92.5,34.5 C 92.5,35.5 92.5,36.5 92.5,37.5C 90.1432,37.3367 87.8098,37.5034 85.5,38C 87.4727,38.4955 89.4727,38.6621 91.5,38.5C 91.5,39.5 91.5,40.5 91.5,41.5C 89.2646,41.2053 87.2646,41.5386 85.5,42.5C 87.6074,43.4682 89.9407,43.8016 92.5,43.5C 92.5,44.5 92.5,45.5 92.5,46.5C 89.1667,46.5 85.8333,46.5 82.5,46.5C 82.5,42.5 82.5,38.5 82.5,34.5C 85.8333,34.5 89.1667,34.5 92.5,34.5 Z"/></g>
<g><path style="opacity:0.931" fill="#181818" d="M 107.5,44.5 C 107.53,45.4972 107.03,46.1639 106,46.5C 104.989,45.9444 104.156,45.2778 103.5,44.5C 102.833,44.5 102.5,44.1667 102.5,43.5C 101.432,42.5655 100.099,42.2322 98.5,42.5C 98.5,43.8333 98.5,45.1667 98.5,46.5C 97.5,46.5 96.5,46.5 95.5,46.5C 95.5,42.1667 95.5,37.8333 95.5,33.5C 99.2733,33.2633 102.94,33.7633 106.5,35C 107.982,37.5918 107.648,39.9251 105.5,42C 106.756,42.4169 107.423,43.2502 107.5,44.5 Z M 99.5,37.5 C 100.978,37.238 102.311,37.5713 103.5,38.5C 102.833,38.8333 102.167,39.1667 101.5,39.5C 100.287,39.2528 99.62,38.5862 99.5,37.5 Z"/></g>
<g><path style="opacity:0.997" fill="#252526" d="M 112.5,33.5 C 116.122,32.924 119.122,33.924 121.5,36.5C 120.335,37.5836 119.002,38.4169 117.5,39C 122.325,41.1348 122.659,43.8015 118.5,47C 114.891,48.0722 111.891,47.2388 109.5,44.5C 109.833,43.5 110.5,42.8333 111.5,42.5C 113.432,43.5202 115.432,43.6869 117.5,43C 112.177,42.9788 109.677,40.4788 110,35.5C 110.995,34.9341 111.828,34.2674 112.5,33.5 Z"/></g>
<g><path style="opacity:0.997" fill="#242424" d="M 134.5,33.5 C 137.798,33.0162 140.464,34.0162 142.5,36.5C 142.167,37.5 141.5,38.1667 140.5,38.5C 135.397,36.439 133.73,37.939 135.5,43C 137.791,43.0154 139.958,43.1821 142,43.5C 142.507,44.9961 142.007,46.1627 140.5,47C 133.369,48.5294 129.869,45.6961 130,38.5C 131.025,36.313 132.525,34.6464 134.5,33.5 Z"/></g>
<g><path style="opacity:1" fill="#ff902d" d="M 18.5,34.5 C 19.0606,46.697 19.7273,56.3637 20.5,63.5C 22.099,63.2322 23.4324,63.5655 24.5,64.5C 21.7952,64.3802 21.1285,65.3802 22.5,67.5C 21.7573,68.1818 21.0906,68.8485 20.5,69.5C 18.1667,69.5 15.8333,69.5 13.5,69.5C 13.8097,63.2424 13.4764,57.0758 12.5,51C 14.25,49.2458 14.9167,47.0792 14.5,44.5C 14.7516,40.6733 16.0849,37.3399 18.5,34.5 Z"/></g>
<g><path style="opacity:0.094" fill="#989898" d="M 92.5,34.5 C 89.1667,34.5 85.8333,34.5 82.5,34.5C 82.5,38.5 82.5,42.5 82.5,46.5C 85.8333,46.5 89.1667,46.5 92.5,46.5C 89.0381,47.4816 85.3714,47.815 81.5,47.5C 81.5,42.8333 81.5,38.1667 81.5,33.5C 85.3714,33.185 89.0381,33.5184 92.5,34.5 Z"/></g>
<g><path style="opacity:0.6" fill="#3f3f3f" d="M 124.5,33.5 C 125.167,50.8333 125.833,50.8333 126.5,33.5C 127.486,37.97 127.819,42.6367 127.5,47.5C 126.167,47.5 124.833,47.5 123.5,47.5C 123.181,42.6367 123.514,37.97 124.5,33.5 Z"/></g>
<g><path style="opacity:1" fill="#040404" d="M 124.5,33.5 C 125.167,33.5 125.833,33.5 126.5,33.5C 125.833,50.8333 125.167,50.8333 124.5,33.5 Z"/></g>
<g><path style="opacity:0.206" fill="#767676" d="M 91.5,38.5 C 92.4345,39.5676 92.7678,40.901 92.5,42.5C 90.1667,42.5 87.8333,42.5 85.5,42.5C 87.2646,41.5386 89.2646,41.2053 91.5,41.5C 91.5,40.5 91.5,39.5 91.5,38.5 Z"/></g>
<g><path style="opacity:0.569" fill="#5e5e5e" d="M 102.5,43.5 C 101.5,43.5 100.5,43.5 99.5,43.5C 99.5,44.8333 99.5,46.1667 99.5,47.5C 97.901,47.7678 96.5676,47.4345 95.5,46.5C 96.5,46.5 97.5,46.5 98.5,46.5C 98.5,45.1667 98.5,43.8333 98.5,42.5C 100.099,42.2322 101.432,42.5655 102.5,43.5 Z"/></g>
<g><path style="opacity:0.141" fill="#818181" d="M 103.5,44.5 C 104.156,45.2778 104.989,45.9444 106,46.5C 107.03,46.1639 107.53,45.4972 107.5,44.5C 108.404,45.209 108.737,46.209 108.5,47.5C 106.833,47.5 105.167,47.5 103.5,47.5C 103.5,46.5 103.5,45.5 103.5,44.5 Z"/></g>
<g><path style="opacity:0.765" fill="#ff9c4e" d="M 130.5,53.5 C 129.732,52.7375 129.232,51.7375 129,50.5C 128.601,50.7284 128.435,51.0618 128.5,51.5C 127.114,56.5556 124.28,57.5556 120,54.5C 120.077,53.2624 119.911,52.2624 119.5,51.5C 118.571,52.6888 118.238,54.0222 118.5,55.5C 117.022,54.5525 116.022,53.2191 115.5,51.5C 114.624,51.6309 113.957,51.2975 113.5,50.5C 114.667,50.1667 115.833,49.8333 117,49.5C 121.518,49.5594 126.018,49.5594 130.5,49.5C 130.5,50.8333 130.5,52.1667 130.5,53.5 Z M 122.5,51.5 C 125.293,51.74 125.793,52.74 124,54.5C 122.961,53.7562 122.461,52.7562 122.5,51.5 Z"/></g>
<g><path style="opacity:0.42" fill="#ffb6a8" d="M 136.5,49.5 C 136.5,49.8333 136.5,50.1667 136.5,50.5C 136.077,52.7812 136.744,54.4479 138.5,55.5C 137.791,56.404 136.791,56.7373 135.5,56.5C 135.198,53.9407 135.532,51.6074 136.5,49.5 Z"/></g>
<g><path style="opacity:0.945" fill="#ff7161" d="M 136.5,50.5 C 136.5,50.1667 136.5,49.8333 136.5,49.5C 138.977,49.0508 140.977,49.7175 142.5,51.5C 141.943,53.2352 141.61,54.9018 141.5,56.5C 140.482,55.8075 139.482,55.1408 138.5,54.5C 137.167,53.5 137.167,52.5 138.5,51.5C 138.833,52.8333 139.167,52.8333 139.5,51.5C 138.791,50.596 137.791,50.2627 136.5,50.5 Z"/></g>
<g><path style="opacity:1" fill="#ff4222" d="M 136.5,50.5 C 137.791,50.2627 138.791,50.596 139.5,51.5C 139.167,51.5 138.833,51.5 138.5,51.5C 137.167,52.5 137.167,53.5 138.5,54.5C 138.5,54.8333 138.5,55.1667 138.5,55.5C 136.744,54.4479 136.077,52.7812 136.5,50.5 Z"/></g>
<g><path style="opacity:0.231" fill="#ffd6a1" d="M 115.5,51.5 C 116.022,53.2191 117.022,54.5525 118.5,55.5C 117.791,56.404 116.791,56.7373 115.5,56.5C 115.5,54.8333 115.5,53.1667 115.5,51.5 Z"/></g>
<g><path style="opacity:0.71" fill="#ff713c" d="M 128.5,51.5 C 128.435,51.0618 128.601,50.7284 129,50.5C 129.232,51.7375 129.732,52.7375 130.5,53.5C 130.56,54.0431 130.893,54.3764 131.5,54.5C 132.167,52.8333 132.833,51.1667 133.5,49.5C 134.769,51.6948 134.769,53.8615 133.5,56C 129.508,57.1772 127.842,55.6772 128.5,51.5 Z"/></g>
<g><path style="opacity:1" fill="#ff6e39" d="M 37.5,52.5 C 36.3398,54.2027 37.0065,54.8693 39.5,54.5C 39.3398,56.1992 39.5065,57.8659 40,59.5C 41.0407,57.6885 42.2073,57.3552 43.5,58.5C 40.7534,61.2067 37.4201,62.8734 33.5,63.5C 31.5,63.5 29.5,63.5 27.5,63.5C 27.5,61.1667 27.5,58.8333 27.5,56.5C 29.8984,56.7406 31.8984,56.0739 33.5,54.5C 34.5137,53.3263 35.847,52.6596 37.5,52.5 Z"/></g>
</svg>
