<!-- icon666.com - MILLIONS vector ICONS FREE --><svg viewBox="0 0 64 64" xmlns="http://www.w3.org/2000/svg" xmlns:xlink="http://www.w3.org/1999/xlink"><linearGradient id="New_Gradient_Swatch_1" gradientUnits="userSpaceOnUse" x1="28" x2="28" y1="-2.753" y2="65.957"><stop offset="0" stop-color="#fff33b"></stop><stop offset=".014" stop-color="#fee72e"></stop><stop offset=".042" stop-color="#fed51b"></stop><stop offset=".07" stop-color="#fdca10"></stop><stop offset=".1" stop-color="#fdc70c"></stop><stop offset=".4" stop-color="#f3903f"></stop><stop offset=".8" stop-color="#ed683c"></stop><stop offset="1" stop-color="#e93e3a"></stop></linearGradient><linearGradient id="New_Gradient_Swatch_1-2" x1="32" x2="32" xlink:href="#New_Gradient_Swatch_1" y1="-2.753" y2="65.957"></linearGradient><linearGradient id="New_Gradient_Swatch_1-3" x1="59" x2="59" xlink:href="#New_Gradient_Swatch_1" y1="-2.753" y2="65.957"></linearGradient><linearGradient id="New_Gradient_Swatch_1-4" x1="21" x2="21" xlink:href="#New_Gradient_Swatch_1" y1="-2.753" y2="65.957"></linearGradient><g id="organize-clipboard-calendar-date-schedule"><path d="m51 8h-8.18a3.01 3.01 0 0 0 -2.82-2h-2.34a6 6 0 0 0 -11.32 0h-2.34a3.01 3.01 0 0 0 -2.82 2h-8.18a3.009 3.009 0 0 0 -3 3v9h-5a3.009 3.009 0 0 0 -3 3v26a3.009 3.009 0 0 0 3 3h5v7a3.009 3.009 0 0 0 3 3h38a3.009 3.009 0 0 0 3-3v-48a3.009 3.009 0 0 0 -3-3zm-28 1a1 1 0 0 1 1-1h3.1a.988.988 0 0 0 .98-.8 4 4 0 0 1 7.84 0 .988.988 0 0 0 .98.8h3.1a1 1 0 0 1 1 1v4h-18zm-1 6h20a1 1 0 0 0 1-1h5v42h-32v-4h21a3.009 3.009 0 0 0 3-3v-26a3.009 3.009 0 0 0 -3-3h-5v-2h-2v2h-8v-2h-2v2h-4v-6h5a1 1 0 0 0 1 1zm-10-4a1 1 0 0 1 1-1h8v2h-6a1 1 0 0 0 -1 1v7h-2zm-8 12a1 1 0 0 1 1-1h5v2h2v-2h8v2h2v-2h8v2h2v-2h5a1 1 0 0 1 1 1v3h-34zm1 27a1 1 0 0 1 -1-1v-21h34v21a1 1 0 0 1 -1 1zm47 9a1 1 0 0 1 -1 1h-38a1 1 0 0 1 -1-1v-7h2v5a1 1 0 0 0 1 1h34a1 1 0 0 0 1-1v-44a1 1 0 0 0 -1-1h-6v-2h8a1 1 0 0 1 1 1z" fill="url(#New_Gradient_Swatch_1)"></path><circle cx="32" cy="8" fill="url(#New_Gradient_Swatch_1-2)" r="2"></circle><path d="m59 10a3 3 0 0 0 -3 3v40a1 1 0 0 0 .03.243l2 8a1 1 0 0 0 1.94 0l2-8a1 1 0 0 0 .03-.243v-40a3 3 0 0 0 -3-3zm1 42.877-1 4-1-4v-39.877a1 1 0 0 1 2 0z" fill="url(#New_Gradient_Swatch_1-3)"></path><path d="m35 30h-28a1 1 0 0 0 -1 1v16a1 1 0 0 0 1 1h28a1 1 0 0 0 1-1v-16a1 1 0 0 0 -1-1zm-1 4h-2v-2h2zm-16 4h-2v-2h2zm2-2h2v2h-2zm-2 4v2h-2v-2zm2 0h2v2h-2zm4 0h2v2h-2zm0-2v-2h2v2zm4-2h2v2h-2zm0-2v-2h2v2zm-2 0h-2v-2h2zm-4 0h-2v-2h2zm-4 0h-2v-2h2zm-4 0h-2v-2h2zm0 2v2h-2v-2zm-4 2h-2v-2h2zm0 2v2h-2v-2zm2 0h2v2h-2zm2 4v2h-2v-2zm2 0h2v2h-2zm4 0h2v2h-2zm4 0h2v2h-2zm4 0h2v2h-2zm0-2v-2h2v2zm4-2h2v2h-2zm0-2v-2h2v2zm-22-6v2h-2v-2zm-2 12h2v2h-2zm24 2v-2h2v2z" fill="url(#New_Gradient_Swatch_1-4)"></path></g></svg>