<!-- icon666.com - MILLIONS vector ICONS FREE --><svg xmlns="http://www.w3.org/2000/svg" xmlns:xlink="http://www.w3.org/1999/xlink" viewBox="0 0 128 128"><defs><linearGradient id="a" x1="105.487" y1="114.987" x2="3.513" y2="13.013" gradientUnits="userSpaceOnUse"><stop offset="0" stop-color="#fd5c70"></stop><stop offset="1" stop-color="#ffce64"></stop></linearGradient></defs><path d="M10.25,86.61V81.639a1.75,1.75,0,0,1,3.5,0V86.61a1.75,1.75,0,0,1-3.5,0ZM28.694,63.253H69.889a1.75,1.75,0,0,0,0-3.5H28.694a1.75,1.75,0,0,0,0,3.5ZM69.889,74.021h-20.6a1.75,1.75,0,0,0,0,3.5h20.6a1.75,1.75,0,0,0,0-3.5Zm-41.195,3.5H39.111a1.75,1.75,0,1,0,0-3.5H28.694a1.75,1.75,0,0,0,0,3.5Zm0,14.268h20.6a1.75,1.75,0,0,0,0-3.5h-20.6a1.75,1.75,0,0,0,0,3.5ZM39.111,34.718a1.751,1.751,0,0,1-1.75-1.75V23.694a1.75,1.75,0,0,1,1.75-1.75H69.889a1.75,1.75,0,0,1,1.75,1.75v9.274a1.751,1.751,0,0,1-1.75,1.75Zm1.75-3.5H68.139V25.444H40.861ZM26.944,47.236a1.75,1.75,0,0,0,1.75,1.75H69.889a1.75,1.75,0,0,0,0-3.5H28.694A1.75,1.75,0,0,0,26.944,47.236Zm79.752-.625a1.751,1.751,0,0,0-1.028,2.252,9.239,9.239,0,1,1-5.236-5.357,1.75,1.75,0,0,0,1.3-3.25,12.736,12.736,0,1,0,7.217,7.382A1.751,1.751,0,0,0,106.7,46.611Zm9.4,9.487-.88.881.322,1.2a5.656,5.656,0,0,1-4,6.927l-1.2.323-.322,1.2a5.6,5.6,0,0,1-2.44,3.294V76.7a1.75,1.75,0,1,1-3.5,0V70.8a5.732,5.732,0,0,1-.989-.163l-1.2-.323-.88.881a5.657,5.657,0,0,1-8,0l-.88-.881-1.2.323a5.7,5.7,0,0,1-.988.163V90.676l5.834-5.833a1.748,1.748,0,0,1,2.474,0l5.834,5.833v-4.86a1.75,1.75,0,0,1,3.5,0V94.9a1.75,1.75,0,0,1-2.987,1.238L98.75,90.305V121A1.751,1.751,0,0,1,97,122.75H12A1.751,1.751,0,0,1,10.25,121V95.726a1.75,1.75,0,0,1,3.5,0V119.25h81.5V90.305l-5.834,5.834A1.75,1.75,0,0,1,86.429,94.9V69.928a5.6,5.6,0,0,1-2.44-3.294l-.322-1.2-1.2-.323a5.656,5.656,0,0,1-4-6.928l.322-1.2-.88-.88a5.657,5.657,0,0,1,0-8l.88-.88-.322-1.2a5.657,5.657,0,0,1,4-6.928l1.2-.322.322-1.2a5.655,5.655,0,0,1,6.928-4l1.2.322.88-.881a5.623,5.623,0,0,1,2.25-1.355V8.75H13.75V72.523a1.75,1.75,0,0,1-3.5,0V7A1.751,1.751,0,0,1,12,5.25H97A1.751,1.751,0,0,1,98.75,7V31.65A5.613,5.613,0,0,1,101,33.005l.881.881,1.2-.322a5.656,5.656,0,0,1,6.929,4l.322,1.2,1.2.322a5.657,5.657,0,0,1,4,6.928l-.322,1.2.88.88a5.655,5.655,0,0,1,0,8Zm-1.843-4a2.143,2.143,0,0,0-.631-1.525l-1.595-1.595a1.747,1.747,0,0,1-.453-1.69l.583-2.179a2.156,2.156,0,0,0-1.525-2.641l-2.178-.584a1.749,1.749,0,0,1-1.238-1.237l-.583-2.179a2.158,2.158,0,0,0-2.641-1.525l-2.179.584a1.745,1.745,0,0,1-1.69-.453l-1.595-1.6a2.21,2.21,0,0,0-3.05,0l-1.595,1.6a1.75,1.75,0,0,1-1.69.453l-2.178-.584a2.158,2.158,0,0,0-2.642,1.525l-.583,2.179a1.749,1.749,0,0,1-1.238,1.237l-2.179.584a2.156,2.156,0,0,0-1.524,2.641l.583,2.179a1.749,1.749,0,0,1-.453,1.69l-1.595,1.595a2.157,2.157,0,0,0,0,3.049l1.6,1.6a1.753,1.753,0,0,1,.453,1.691l-.584,2.178a2.156,2.156,0,0,0,1.525,2.642l2.178.583a1.752,1.752,0,0,1,1.238,1.238l.583,2.179a2.156,2.156,0,0,0,2.641,1.524l2.179-.584a1.748,1.748,0,0,1,1.691.453l1.595,1.595a2.207,2.207,0,0,0,3.049,0l1.594-1.595a1.746,1.746,0,0,1,1.691-.453l2.179.584a2.156,2.156,0,0,0,2.641-1.525l.583-2.178a1.752,1.752,0,0,1,1.238-1.238l2.179-.583a2.157,2.157,0,0,0,1.524-2.642l-.583-2.179a1.747,1.747,0,0,1,.453-1.69l1.595-1.6A2.141,2.141,0,0,0,114.25,52.1Z" fill="url(#a)"></path></svg>