<!-- icon666.com - MILLIONS vector ICONS FREE --><svg id="Layer_1" enable-background="new 0 0 512 512" viewBox="0 0 512 512" xmlns="http://www.w3.org/2000/svg" xmlns:xlink="http://www.w3.org/1999/xlink"><linearGradient id="SVGID_1_" gradientUnits="userSpaceOnUse" x1="-6.499" x2="489.793" y1="500.811" y2="4.52"><stop offset="0" stop-color="#fcc60e"></stop><stop offset="1" stop-color="#e92e29"></stop></linearGradient><path d="m193.978 256c0-4.415 3.579-7.994 7.994-7.994h103.946c4.415 0 7.994 3.579 7.994 7.994s-3.579 7.994-7.994 7.994h-103.946c-4.415 0-7.994-3.579-7.994-7.994zm7.994-190.942h103.946c4.415 0 7.994-3.579 7.994-7.994s-3.579-7.994-7.994-7.994h-103.946c-4.415 0-7.994 3.579-7.994 7.994s3.579 7.994 7.994 7.994zm0 311.982h103.946c4.415 0 7.994-3.579 7.994-7.994s-3.579-7.994-7.994-7.994h-103.946c-4.415 0-7.994 3.579-7.994 7.994s3.579 7.994 7.994 7.994zm0 42.944h103.946c4.415 0 7.994-3.579 7.994-7.994s-3.579-7.994-7.994-7.994h-103.946c-4.415 0-7.994 3.579-7.994 7.994s3.579 7.994 7.994 7.994zm0-311.981h103.946c4.415 0 7.994-3.579 7.994-7.994s-3.579-7.994-7.994-7.994h-103.946c-4.415 0-7.994 3.579-7.994 7.994s3.579 7.994 7.994 7.994zm0 113.046h103.946c4.415 0 7.994-3.579 7.994-7.994s-3.579-7.994-7.994-7.994h-103.946c-4.415 0-7.994 3.579-7.994 7.994s3.579 7.994 7.994 7.994zm305.149-33.287v168.96c2.865 1.215 4.875 4.054 4.875 7.362v85.068c0 2.121-.843 4.155-2.343 5.655l-33.033 33.007v16.188c0 4.415-3.579 7.994-7.994 7.994s-7.994-3.579-7.994-7.994v-16.191l-33.007-33.007c-1.499-1.499-2.341-3.532-2.341-5.652v-85.068c0-3.309 2.01-6.147 4.875-7.362v-168.96c-2.865-1.215-4.875-4.054-4.875-7.362v-112.422h-9.241c-4.08 0-7.398 3.319-7.398 7.398v137.197c0 4.415-3.579 7.994-7.994 7.994s-7.994-3.579-7.994-7.994v-137.197c0-12.895 10.491-23.386 23.386-23.386h24.463v-32.428c0-10.785 8.774-19.559 19.559-19.559h17.121c10.785 0 19.559 8.774 19.559 19.559v32.429h7.256c4.415 0 7.994 3.579 7.994 7.994v120.415c.002 3.308-2.008 6.147-4.874 7.362zm-50.626-135.771h24.265v-32.429c0-1.936-1.636-3.571-3.572-3.571h-17.121c-1.936 0-3.572 1.635-3.572 3.571zm39.514 320.088h-54.737v73.763l27.357 27.356 27.38-27.358zm-35.376-15.988v-167.697h-14.485v167.698h14.485zm30.501 0v-167.697h-14.513v167.698h14.513zm4.875-288.113h-54.737v104.428h54.737zm-438.945 82.97h92.892c4.415 0 7.994-3.579 7.994-7.994v-46.805l13.366-12.132c3.269-2.967 3.514-8.022.546-11.292s-8.022-3.514-11.292-.546l-38.577 35.016-12.813-12.833c-3.119-3.125-8.181-3.128-11.305-.009s-3.128 8.181-.009 11.305l18.198 18.227c1.557 1.56 3.605 2.346 5.658 2.346 1.92 0 3.844-.688 5.372-2.075l14.867-13.495v24.3h-76.903v-69.903h84.898c4.415 0 7.994-3.579 7.994-7.994s-3.579-7.994-7.994-7.994h-92.892c-4.415 0-7.994 3.579-7.994 7.994v85.89c.001 4.415 3.58 7.994 7.994 7.994zm305.915-142.951v496.006c0 4.415-3.579 7.994-7.994 7.994h-346.988c-4.415 0-7.994-3.579-7.994-7.994v-496.006c0-4.415 3.579-7.994 7.994-7.994h346.989c4.414 0 7.993 3.579 7.993 7.994zm-15.987 7.994h-331.001v480.019h331.001zm-289.928 446.938h92.892c4.415 0 7.994-3.579 7.994-7.994v-46.814l13.364-12.121c3.27-2.966 3.516-8.021.55-11.292-2.966-3.27-8.021-3.517-11.292-.55l-38.582 34.995-12.814-12.814c-3.122-3.122-8.183-3.122-11.305 0s-3.122 8.183 0 11.305l18.198 18.198c1.557 1.557 3.603 2.341 5.653 2.341 1.919 0 3.843-.688 5.37-2.073l14.869-13.487v24.319h-76.903v-69.902h84.898c4.415 0 7.994-3.579 7.994-7.994s-3.579-7.994-7.994-7.994h-92.892c-4.415 0-7.994 3.579-7.994 7.994v85.89c.001 4.415 3.58 7.993 7.994 7.993zm0-155.991h92.892c4.415 0 7.994-3.579 7.994-7.994v-46.804l13.366-12.132c3.269-2.967 3.514-8.022.546-11.292s-8.022-3.514-11.292-.546l-38.577 35.015-12.813-12.833c-3.12-3.125-8.181-3.129-11.305-.009-3.124 3.119-3.128 8.181-.009 11.305l18.198 18.227c1.558 1.56 3.605 2.346 5.658 2.346 1.92 0 3.844-.688 5.372-2.075l14.867-13.495v24.3h-76.903v-69.902h84.898c4.415 0 7.994-3.579 7.994-7.994s-3.579-7.994-7.994-7.994h-92.892c-4.415 0-7.994 3.579-7.994 7.994v85.89c.001 4.415 3.58 7.993 7.994 7.993z" fill="url(#SVGID_1_)"></path></svg>