<!-- icon666.com - MILLIONS vector ICONS FREE --><svg xmlns="http://www.w3.org/2000/svg" xmlns:xlink="http://www.w3.org/1999/xlink" viewBox="0 0 128 128"><defs><linearGradient id="a" x1="122.238" y1="122.238" x2="5.763" y2="5.762" gradientUnits="userSpaceOnUse"><stop offset="0" stop-color="#fd5c70"></stop><stop offset="1" stop-color="#ffce64"></stop></linearGradient></defs><path d="M122.75,121a1.749,1.749,0,0,1-1.75,1.75H7A1.75,1.75,0,0,1,5.25,121V7a1.75,1.75,0,0,1,3.5,0V119.25H121A1.749,1.749,0,0,1,122.75,121ZM17.082,112.668H35.5a1.75,1.75,0,0,0,1.75-1.75V65.42a1.75,1.75,0,0,0-1.75-1.75H17.082a1.75,1.75,0,0,0-1.75,1.75V90.361a1.75,1.75,0,0,0,3.5,0V67.17H33.75v42H18.832v-9.69a1.75,1.75,0,0,0-3.5,0v11.44A1.75,1.75,0,0,0,17.082,112.668Zm28.5,0H64a1.75,1.75,0,0,0,1.75-1.75V72.907a1.75,1.75,0,1,0-3.5,0v36.261H47.332V28.224H62.25V63.792a1.75,1.75,0,0,0,3.5,0V26.474A1.75,1.75,0,0,0,64,24.724H45.582a1.75,1.75,0,0,0-1.75,1.75v84.444A1.75,1.75,0,0,0,45.582,112.668Zm26.75-1.75V45.946a1.749,1.749,0,0,1,1.75-1.75H92.5a1.749,1.749,0,0,1,1.75,1.75v64.972a1.749,1.749,0,0,1-1.75,1.75H74.082A1.749,1.749,0,0,1,72.332,110.918Zm3.5-1.75H90.75V47.7H75.832ZM121,5.25H102.582A1.749,1.749,0,0,0,100.832,7V110.918a1.749,1.749,0,0,0,1.75,1.75H121a1.749,1.749,0,0,0,1.75-1.75V54.182a1.75,1.75,0,0,0-3.5,0v54.986H104.332V8.75H119.25V30.978a1.75,1.75,0,1,0,3.5,0V7A1.749,1.749,0,0,0,121,5.25Zm0,33.1a1.749,1.749,0,0,0-1.75,1.75v4.97a1.75,1.75,0,0,0,3.5,0V40.1A1.749,1.749,0,0,0,121,38.345Z" fill="url(#a)"></path></svg>