<!-- icon666.com - MILLIONS vector ICONS FREE --><svg viewBox="0 0 128 128" xmlns="http://www.w3.org/2000/svg" xmlns:xlink="http://www.w3.org/1999/xlink"><linearGradient id="a" gradientUnits="userSpaceOnUse" x1="104.646" x2="37.428" y1="102.673" y2="35.455"><stop offset="0" stop-color="#fd5c70"></stop><stop offset="1" stop-color="#ffce64"></stop></linearGradient><path d="m122.75 10.5v31.241a5.256 5.256 0 0 1 -5.25 5.25h-25.2l-18.952 13.761a1.75 1.75 0 0 1 -2.632-2.117l5.092-11.644h-6a5.256 5.256 0 0 1 -5.25-5.25v-31.241a5.256 5.256 0 0 1 5.242-5.25h32.12a1.75 1.75 0 0 1 0 3.5h-32.12a1.752 1.752 0 0 0 -1.75 1.75v31.241a1.752 1.752 0 0 0 1.75 1.75h8.679a1.75 1.75 0 0 1 1.6 2.451l-3.579 8.194 14.2-10.311a1.751 1.751 0 0 1 1.028-.334h25.772a1.752 1.752 0 0 0 1.75-1.75v-31.241a1.752 1.752 0 0 0 -1.75-1.75h-6.46a1.75 1.75 0 0 1 0-3.5h6.46a5.256 5.256 0 0 1 5.25 5.25zm-75.373 108.75h-6.006a19.529 19.529 0 0 1 -7.287-1.4l-11.172-4.471a1.768 1.768 0 0 0 -.65-.125h-15.262a1.75 1.75 0 0 0 0 3.5h14.925l10.858 4.346a23.022 23.022 0 0 0 8.588 1.654h6.006a1.75 1.75 0 1 0 0-3.5zm14.087 0h-4.971a1.75 1.75 0 1 0 0 3.5h4.971a1.75 1.75 0 0 0 0-3.5zm27.65-40.242a7.758 7.758 0 0 0 -7.75-7.75h-24.438v-8.158a1.75 1.75 0 0 0 -3.5 0v9.909a1.749 1.749 0 0 0 1.75 1.75h26.188a4.25 4.25 0 0 1 0 8.5 1.75 1.75 0 0 0 0 3.5 4.25 4.25 0 0 1 .208 8.5c-.068 0-.138 0-.208 0a1.754 1.754 0 0 0 0 3.508h.208a4.25 4.25 0 0 1 -.208 8.5 1.75 1.75 0 0 0 0 3.5 4.25 4.25 0 0 1 0 8.5h-10.784a1.75 1.75 0 1 0 0 3.5h10.784a7.748 7.748 0 0 0 4.9-13.75 7.742 7.742 0 0 0 0-12 7.742 7.742 0 0 0 0-12 7.74 7.74 0 0 0 2.85-6.009zm-35.688-25.026a1.75 1.75 0 0 0 3.5 0v-7.024a8.133 8.133 0 0 0 -16.2-1.035l-1.345 10.477a13.288 13.288 0 0 1 -4.081 7.973l-13.731 12.877h-14.569a1.75 1.75 0 0 0 0 3.5h15.262a1.747 1.747 0 0 0 1.2-.474l14.238-13.35a16.784 16.784 0 0 0 5.152-10.086l1.348-10.472a4.634 4.634 0 0 1 9.23.59zm43.864-31.953-4.472 4.471-2.8-2.8a1.75 1.75 0 0 0 -2.478 2.47l4.041 4.042a1.749 1.749 0 0 0 2.475 0l5.709-5.712a1.75 1.75 0 0 0 -2.475-2.475zm10.11 4.091a13.75 13.75 0 1 1 -13.75-13.75 13.765 13.765 0 0 1 13.75 13.75zm-3.5 0a10.25 10.25 0 1 0 -10.25 10.25 10.261 10.261 0 0 0 10.25-10.25z" fill="url(#a)"></path></svg>