<!-- icon666.com - MILLIONS vector ICONS FREE --><svg id="Layer_1" enable-background="new 0 0 512 512" viewBox="0 0 512 512" xmlns="http://www.w3.org/2000/svg" xmlns:xlink="http://www.w3.org/1999/xlink"><linearGradient id="SVGID_1_" gradientUnits="userSpaceOnUse" x1="50.374" x2="461.626" y1="416.889" y2="5.637"><stop offset="0" stop-color="#fcc60e"></stop><stop offset="1" stop-color="#e92e29"></stop></linearGradient><path d="m478.546 79.864c-6.096-1.514-12.187-2.662-18.263-3.477 9.77-8.323 16.197-22.314 16.197-38.144 0-23.229-14.543-38.239-37.05-38.239-22.506 0-37.049 15.01-37.049 38.239 0 15.79 6.395 29.748 16.122 38.078-6.132.821-12.227 1.998-18.273 3.557-21.205 5.425-33.367 17.774-33.367 33.879v58.649c0 4.415 3.579 7.994 7.994 7.994s7.994-3.579 7.994-7.994v-58.649c0-10.687 11.605-15.9 21.356-18.395 22.92-5.911 46.636-5.904 70.496.02 7.957 1.966 21.306 6.968 21.306 18.375v58.649c0 4.415 3.579 7.994 7.994 7.994s7.994-3.579 7.994-7.994v-58.649c0-16.287-12.196-28.641-33.451-33.893zm-39.116-63.873c9.608 0 21.062 3.86 21.062 22.252 0 16.364-9.645 30.189-21.062 30.189-11.416 0-21.061-13.825-21.061-30.189 0-18.392 11.452-22.252 21.061-22.252zm-35.235 164.409c-4.415 0-7.994-3.579-7.994-7.994v-45.184c0-4.415 3.579-7.994 7.994-7.994s7.994 3.579 7.994 7.994v45.184c0 4.415-3.579 7.994-7.994 7.994zm70.441 0c-4.415 0-7.994-3.579-7.994-7.994v-45.184c0-4.415 3.579-7.994 7.994-7.994s7.994 3.579 7.994 7.994v45.184c0 4.415-3.579 7.994-7.994 7.994zm-155.709 176.806c-14.486-3.596-28.954-5.963-43.36-7.108 21.056-10.071 36.077-35.892 36.077-66.091 0-35.529-21.322-57.6-55.645-57.6s-55.645 22.071-55.645 57.6c0 30.133 14.957 55.905 35.941 66.023-14.566 1.118-29.022 3.514-43.317 7.193-32.808 8.436-50.876 26.407-50.876 50.602v96.179c0 4.415 3.579 7.994 7.994 7.994s7.994-3.579 7.994-7.994v-96.179c0-20.765 21.137-30.559 38.87-35.119 38.456-9.897 78.195-9.892 118.115.018 14.492 3.593 38.803 12.93 38.803 35.101v96.179c0 4.415 3.579 7.994 7.994 7.994s7.994-3.579 7.994-7.994v-96.179c.002-24.144-18.566-42.594-50.939-50.619zm-102.583-73.2c0-36.207 24.846-41.613 39.656-41.613s39.656 5.406 39.656 41.613c0 30.12-17.789 54.624-39.656 54.624s-39.656-24.504-39.656-54.624zm-10.12 145.928v74.069c0 4.415-3.579 7.994-7.994 7.994s-7.994-3.579-7.994-7.994v-74.069c0-4.415 3.579-7.994 7.994-7.994s7.994 3.579 7.994 7.994zm115.54 0v74.069c0 4.415-3.579 7.994-7.994 7.994s-7.994-3.579-7.994-7.994v-74.069c0-4.415 3.579-7.994 7.994-7.994s7.994 3.579 7.994 7.994zm-313.767-249.534c4.415 0 7.994-3.579 7.994-7.994v-58.649c0-10.696 11.604-15.904 21.355-18.395 22.92-5.911 46.636-5.904 70.496.02 7.947 1.964 21.278 6.962 21.278 18.375v58.649c0 4.415 3.579 7.994 7.994 7.994s7.994-3.579 7.994-7.994v-58.649c0-16.292-12.186-28.646-33.423-33.894-6.097-1.514-12.187-2.662-18.264-3.477 9.77-8.323 16.196-22.314 16.196-38.144 0-23.229-14.543-38.239-37.049-38.239-22.507 0-37.05 15.01-37.05 38.239 0 15.79 6.395 29.748 16.123 38.078-6.131.82-12.225 1.998-18.27 3.556-21.207 5.416-33.37 17.765-33.37 33.88v58.649c.002 4.416 3.581 7.995 7.996 7.995zm64.573-164.409c9.608 0 21.061 3.86 21.061 22.252 0 16.364-9.645 30.189-21.061 30.189-11.417 0-21.062-13.825-21.062-30.189.001-18.392 11.454-22.252 21.062-22.252zm-35.235 103.238c4.415 0 7.994 3.579 7.994 7.994v45.184c0 4.415-3.579 7.994-7.994 7.994s-7.994-3.579-7.994-7.994v-45.184c0-4.415 3.579-7.994 7.994-7.994zm70.441 0c4.415 0 7.994 3.579 7.994 7.994v45.184c0 4.415-3.579 7.994-7.994 7.994s-7.994-3.579-7.994-7.994v-45.184c0-4.415 3.579-7.994 7.994-7.994zm83.651 61.171c4.415 0 7.994-3.579 7.994-7.994v-58.649c0-10.687 11.605-15.9 21.356-18.395 22.918-5.911 46.631-5.904 70.496.02 7.946 1.963 21.277 6.962 21.277 18.375v58.649c0 4.415 3.579 7.994 7.994 7.994s7.994-3.579 7.994-7.994v-58.649c0-16.292-12.186-28.646-33.423-33.894-6.097-1.514-12.187-2.662-18.264-3.477 9.77-8.323 16.197-22.314 16.197-38.144 0-23.229-14.543-38.239-37.049-38.239-22.507 0-37.05 15.01-37.05 38.239 0 15.79 6.395 29.748 16.123 38.078-6.132.821-12.227 1.998-18.273 3.557-21.205 5.425-33.367 17.774-33.367 33.879v58.649c.001 4.416 3.58 7.995 7.995 7.995zm64.573-164.409c9.608 0 21.061 3.86 21.061 22.252 0 16.364-9.645 30.189-21.061 30.189-11.417 0-21.062-13.825-21.062-30.189 0-18.392 11.454-22.252 21.062-22.252zm-35.234 103.238c4.415 0 7.994 3.579 7.994 7.994v45.184c0 4.415-3.579 7.994-7.994 7.994s-7.994-3.579-7.994-7.994v-45.184c-.001-4.415 3.579-7.994 7.994-7.994zm70.44 0c4.415 0 7.994 3.579 7.994 7.994v45.184c0 4.415-3.579 7.994-7.994 7.994s-7.994-3.579-7.994-7.994v-45.184c0-4.415 3.579-7.994 7.994-7.994zm187.34 151.406c-6.085-1.511-12.168-2.656-18.239-3.47 9.756-8.325 16.173-22.306 16.173-38.123 0-23.229-14.543-38.239-37.05-38.239-22.506 0-37.049 15.01-37.049 38.239 0 15.781 6.388 29.733 16.107 38.065-6.127.819-12.222 1.992-18.272 3.545-21.196 5.464-33.354 17.812-33.354 33.876v58.677c0 4.415 3.579 7.994 7.994 7.994s7.994-3.579 7.994-7.994v-58.677c0-10.653 11.613-15.883 21.349-18.393 22.974-5.898 46.692-5.894 70.489.014 7.963 1.983 21.32 7.007 21.32 18.379v58.677c0 4.415 3.579 7.994 7.994 7.994s7.994-3.579 7.994-7.994v-58.677c.001-16.245-12.189-28.598-33.45-33.893zm-39.116-63.844c9.608 0 21.062 3.86 21.062 22.252 0 16.364-9.645 30.189-21.062 30.189-11.416 0-21.061-13.825-21.061-30.189 0-18.392 11.452-22.252 21.061-22.252zm-27.241 111.231v45.184c0 4.415-3.579 7.994-7.994 7.994s-7.994-3.579-7.994-7.994v-45.184c0-4.415 3.579-7.994 7.994-7.994s7.994 3.579 7.994 7.994zm70.441 0v45.184c0 4.415-3.579 7.994-7.994 7.994s-7.994-3.579-7.994-7.994v-45.184c0-4.415 3.579-7.994 7.994-7.994s7.994 3.579 7.994 7.994zm-337.521 45.184v-58.677c0-16.25-12.181-28.604-33.423-33.894-6.085-1.511-12.168-2.657-18.239-3.47 9.756-8.325 16.172-22.306 16.172-38.123 0-23.229-14.543-38.239-37.049-38.239-22.507 0-37.05 15.01-37.05 38.239 0 15.781 6.388 29.732 16.107 38.064-6.126.819-12.22 1.992-18.27 3.545-21.197 5.455-33.355 17.803-33.355 33.877v58.677c0 4.415 3.579 7.994 7.994 7.994s7.994-3.579 7.994-7.994v-58.677c0-10.662 11.61-15.888 21.348-18.393 22.974-5.899 46.693-5.894 70.49.014 7.952 1.98 21.292 7.001 21.292 18.379v58.677c0 4.415 3.579 7.994 7.994 7.994s7.995-3.578 7.995-7.993zm-72.539-156.415c9.608 0 21.061 3.86 21.061 22.252 0 16.364-9.645 30.189-21.061 30.189-11.417 0-21.062-13.825-21.062-30.189.001-18.392 11.454-22.252 21.062-22.252zm-27.241 111.231v45.184c0 4.415-3.579 7.994-7.994 7.994s-7.994-3.579-7.994-7.994v-45.184c0-4.415 3.579-7.994 7.994-7.994s7.994 3.579 7.994 7.994zm70.442 0v45.184c0 4.415-3.579 7.994-7.994 7.994s-7.994-3.579-7.994-7.994v-45.184c0-4.415 3.579-7.994 7.994-7.994s7.994 3.579 7.994 7.994z" fill="url(#SVGID_1_)"></path></svg>