<!-- icon666.com - MILLIONS vector ICONS FREE --><svg xmlns="http://www.w3.org/2000/svg" xmlns:xlink="http://www.w3.org/1999/xlink" viewBox="0 0 128 128"><defs><linearGradient id="a" x1="112.829" y1="128.646" x2="15.171" y2="30.987" gradientUnits="userSpaceOnUse"><stop offset="0" stop-color="#fd5c70"></stop><stop offset="1" stop-color="#ffce64"></stop></linearGradient></defs><path d="M118,72.633a1.75,1.75,0,0,0,1.75-1.75V51.117a1.75,1.75,0,0,0-1.75-1.75H106.6A43.846,43.846,0,0,0,102.352,39.1l8.057-8.058a1.749,1.749,0,0,0,0-2.475L96.433,14.591a1.749,1.749,0,0,0-2.475,0L85.9,22.648A43.881,43.881,0,0,0,75.632,18.4V7a1.749,1.749,0,0,0-1.75-1.75H54.118A1.749,1.749,0,0,0,52.368,7V18.4A43.881,43.881,0,0,0,42.1,22.648l-8.059-8.057a1.748,1.748,0,0,0-2.474,0L17.591,28.567a1.749,1.749,0,0,0,0,2.475L25.648,39.1A43.863,43.863,0,0,0,21.4,49.367H10a1.75,1.75,0,0,0-1.75,1.75V70.883A1.75,1.75,0,0,0,10,72.633H21.4c.227.83.485,1.65.758,2.464a12.3,12.3,0,0,0-4.34,3.93,1.75,1.75,0,1,0,2.9,1.959,8.78,8.78,0,1,1-1.135,7.421,1.75,1.75,0,0,0-3.354,1,12.221,12.221,0,0,0,3.881,5.871l-6.151,1.166a7.025,7.025,0,0,0-5.708,6.894V121a1.75,1.75,0,0,0,3.5,0V103.336a3.518,3.518,0,0,1,2.861-3.454l10.668-2.023A12.061,12.061,0,0,0,28,98.177a12.275,12.275,0,0,0,2.729-.316l10.66,2.021a3.518,3.518,0,0,1,2.861,3.454V121a1.75,1.75,0,0,0,3.5,0V103.336a3.518,3.518,0,0,1,2.861-3.454l10.66-2.021a11.942,11.942,0,0,0,5.458,0l10.66,2.021a3.518,3.518,0,0,1,2.861,3.454V121a1.75,1.75,0,0,0,3.5,0V103.336a3.518,3.518,0,0,1,2.861-3.454l10.66-2.021a11.942,11.942,0,0,0,5.458,0l10.66,2.021a3.518,3.518,0,0,1,2.861,3.454,1.75,1.75,0,1,0,3.5,0,7.024,7.024,0,0,0-5.709-6.894l-6.135-1.163A12.265,12.265,0,0,0,105.843,75.1c.273-.813.531-1.633.758-2.463ZM55.219,85.9A8.781,8.781,0,1,1,64,94.677,8.792,8.792,0,0,1,55.219,85.9Zm53.562,0A8.781,8.781,0,1,1,100,77.114,8.791,8.791,0,0,1,108.781,85.9ZM100,73.614a12.272,12.272,0,0,0-7.906,21.665l-6.136,1.163A6.988,6.988,0,0,0,82,98.724a6.987,6.987,0,0,0-3.959-2.282l-6.135-1.163a12.236,12.236,0,0,0,3.855-12.906A24.4,24.4,0,0,0,57.245,37.552a1.75,1.75,0,1,0,.968,3.363A20.9,20.9,0,0,1,74.278,79.194a12.256,12.256,0,0,0-20.556,0,20.919,20.919,0,0,1-9.746-24.188,1.75,1.75,0,1,0-3.354-1A24.42,24.42,0,0,0,52.239,82.373a12.236,12.236,0,0,0,3.855,12.906l-6.136,1.163A6.988,6.988,0,0,0,46,98.724a6.987,6.987,0,0,0-3.959-2.282l-6.135-1.163A12.244,12.244,0,0,0,25.458,73.9c-.376-1.127-.722-2.267-1-3.422a1.75,1.75,0,0,0-1.7-1.344H11.75V52.867H22.758a1.75,1.75,0,0,0,1.7-1.344A40.34,40.34,0,0,1,29.338,39.74a1.75,1.75,0,0,0-.254-2.154L21.3,29.805,32.8,18.3l7.782,7.781a1.75,1.75,0,0,0,2.154.254A40.351,40.351,0,0,1,54.524,21.46a1.751,1.751,0,0,0,1.344-1.7V8.75H72.132V19.758a1.751,1.751,0,0,0,1.344,1.7A40.351,40.351,0,0,1,85.26,26.338a1.749,1.749,0,0,0,2.154-.254L95.2,18.3l11.5,11.5-7.782,7.781a1.751,1.751,0,0,0-.253,2.154,40.384,40.384,0,0,1,4.878,11.783,1.75,1.75,0,0,0,1.7,1.344H116.25V69.133H105.242a1.751,1.751,0,0,0-1.7,1.343c-.275,1.15-.619,2.286-.993,3.408A12.282,12.282,0,0,0,100,73.614ZM51.31,42.159a1.749,1.749,0,0,1-.283,2.458,21.084,21.084,0,0,0-3.3,3.271,1.75,1.75,0,0,1-2.723-2.2,24.522,24.522,0,0,1,3.847-3.815A1.75,1.75,0,0,1,51.31,42.159ZM55.3,109.805V121a1.75,1.75,0,0,1-3.5,0V109.805a1.75,1.75,0,0,1,3.5,0Zm20.906,0V121a1.75,1.75,0,0,1-3.5,0V109.805a1.75,1.75,0,0,1,3.5,0Zm43.547,2.646V121a1.75,1.75,0,0,1-3.5,0v-8.549a1.75,1.75,0,0,1,3.5,0ZM91.3,109.805V121a1.75,1.75,0,0,1-3.5,0V109.805a1.75,1.75,0,0,1,3.5,0Zm20.906,0V121a1.75,1.75,0,0,1-3.5,0V109.805a1.75,1.75,0,0,1,3.5,0Zm-92.906,0V121a1.75,1.75,0,0,1-3.5,0V109.805a1.75,1.75,0,0,1,3.5,0Zm20.906,0V121a1.75,1.75,0,0,1-3.5,0V109.805a1.75,1.75,0,0,1,3.5,0Z" fill="url(#a)"></path></svg>